<svg xmlns="http://www.w3.org/2000/svg" width="1000" height="560" viewBox="0 0 1000 560">
  <rect width="1000" height="560" fill="white"/>
  <defs>
    <pattern id="casaA" width="16" height="16" patternUnits="userSpaceOnUse"><circle cx="4" cy="4" r="3" fill="#174a8b"/></pattern>
    <pattern id="casaB" width="14" height="14" patternUnits="userSpaceOnUse" patternTransform="rotate(45)"><line x1="0" y1="0" x2="0" y2="14" stroke="#5b4610" stroke-width="4"/></pattern>
  </defs>
  <g stroke="#111" stroke-width="5" font-family="Arial" fill="#111">
    <text x="40" y="52" font-size="28" stroke="none" font-weight="bold">TRILHA DAS PALAVRAS</text>
    <g font-size="26">
      <rect x="40" y="80" width="200" height="60" fill="url(#casaA)"/><text x="66" y="120" stroke="none" fill="#111">Saída</text>
      <rect x="270" y="80" width="120" height="60" fill="#fff"/><text x="318" y="120" stroke="none">2</text>
      <rect x="420" y="80" width="120" height="60" fill="url(#casaB)"/><text x="468" y="120" stroke="none">3</text>
      <rect x="570" y="80" width="120" height="60" fill="#fff"/><text x="618" y="120" stroke="none">4</text>
      <rect x="720" y="80" width="120" height="60" fill="url(#casaA)"/><text x="768" y="120" stroke="none">5</text>
      <rect x="720" y="190" width="120" height="60" fill="#fff"/><text x="768" y="230" stroke="none">6</text>
      <rect x="570" y="190" width="120" height="60" fill="url(#casaB)"/><text x="618" y="230" stroke="none">7</text>
      <rect x="420" y="190" width="120" height="60" fill="#fff"/><text x="468" y="230" stroke="none">8</text>
      <rect x="270" y="190" width="120" height="60" fill="url(#casaA)"/><text x="318" y="230" stroke="none">9</text>
      <rect x="40" y="190" width="200" height="60" fill="#fff"/><text x="60" y="230" stroke="none">Chegada</text>
    </g>
    <path d="M780 140v50" fill="none" stroke-dasharray="12 10"/>
    <text x="40" y="330" font-size="26" stroke="none" font-weight="bold">MATERIAL</text>
    <g transform="translate(50 360)">
      <rect x="0" y="0" width="90" height="90" rx="12" fill="#fff"/>
      <circle cx="26" cy="26" r="8" fill="#111" stroke="none"/><circle cx="64" cy="64" r="8" fill="#111" stroke="none"/><circle cx="45" cy="45" r="8" fill="#111" stroke="none"/>
      <text x="0" y="130" font-size="24" stroke="none">1 dado</text>
    </g>
    <g transform="translate(260 360)">
      <path d="M45 0c22 0 34 20 22 40-8 14-8 26-6 34H29c2-8 2-20-6-34C11 20 23 0 45 0Z" fill="url(#casaA)"/>
      <rect x="14" y="76" width="62" height="16" rx="8" fill="#fff"/>
      <text x="0" y="130" font-size="24" stroke="none">2 peões</text>
    </g>
    <g transform="translate(470 360)">
      <rect x="0" y="10" width="120" height="76" fill="#fff"/><path d="M0 34h120M40 10v76M80 10v76" fill="none" stroke-width="4"/>
      <text x="0" y="130" font-size="24" stroke="none">1 tabuleiro</text>
    </g>
    <g transform="translate(700 360)">
      <rect x="0" y="6" width="96" height="84" fill="#fff"/><path d="M16 34h64M16 54h64M16 74h40" fill="none" stroke-width="4"/>
      <text x="0" y="130" font-size="24" stroke="none">1 lista de</text>
      <text x="0" y="158" font-size="24" stroke="none">palavras</text>
    </g>
  </g>
</svg>
